<svg xmlns="http://www.w3.org/2000/svg" width="19.438" height="11.25"><defs><style>.cls-1{fill:#95e1d3;fill-rule:evenodd}</style></defs><path id="VIEW.svg" class="cls-1" d="M379.71 9115.78a.117.117 0 0 0 0 .02v.05a.734.734 0 0 1-.2.41c-.2.25-.427.48-.651.71a16.685 16.685 0 0 1-4.123 3.12 11.065 11.065 0 0 1-3.09 1.12 9.027 9.027 0 0 1-3.55-.05 13.554 13.554 0 0 1-5.5-2.86 15.053 15.053 0 0 1-2.108-2.04.778.778 0 0 1 0-1.05c.2-.24.426-.47.651-.7a16.648 16.648 0 0 1 4.123-3.12 11.048 11.048 0 0 1 3.089-1.12 8.843 8.843 0 0 1 3.55.05 13.433 13.433 0 0 1 5.5 2.86 14.981 14.981 0 0 1 2.108 2.03.8.8 0 0 1 .2.41v.01a.059.059 0 0 1 0 .02v.01a.134.134 0 0 0 0 .02v.06l.001.04zm-9.72-3.84a3.645 3.645 0 1 0 3.646 3.65 3.645 3.645 0 0 0-3.646-3.65zm0 5.47a1.825 1.825 0 1 1 1.823-1.82 1.824 1.824 0 0 1-1.823 1.82z" transform="translate(-360.281 -9110.13)"/></svg>